<?xml version="1.0" encoding="UTF-8" standalone="no"?>
<!-- Created with Inkscape (http://www.inkscape.org/) -->

<svg
   width="100%"
   height="100%"
   viewBox="0 0 210 297"
   version="1.1"
   id="svg5"
   xml:space="preserve"
   inkscape:version="1.2 (dc2aedaf03, 2022-05-15)"
   sodipodi:docname="dadjoke-icon.svg"
   xmlns:inkscape="http://www.inkscape.org/namespaces/inkscape"
   xmlns:sodipodi="http://sodipodi.sourceforge.net/DTD/sodipodi-0.dtd"
   xmlns="http://www.w3.org/2000/svg"
   xmlns:svg="http://www.w3.org/2000/svg"><sodipodi:namedview
     id="namedview7"
     pagecolor="#ffffff"
     bordercolor="#000000"
     borderopacity="0.25"
     inkscape:showpageshadow="2"
     inkscape:pageopacity="0.0"
     inkscape:pagecheckerboard="0"
     inkscape:deskcolor="#d1d1d1"
     inkscape:document-units="mm"
     showgrid="false"
     inkscape:zoom="0.27653847"
     inkscape:cx="359.80527"
     inkscape:cy="36.161334"
     inkscape:window-width="1876"
     inkscape:window-height="1014"
     inkscape:window-x="21"
     inkscape:window-y="43"
     inkscape:window-maximized="1"
     inkscape:current-layer="layer1" /><defs
     id="defs2"><rect
       x="152.56269"
       y="302.05402"
       width="374.64866"
       height="648.85278"
       id="rect63" /></defs><g
     inkscape:label="Layer 1"
     inkscape:groupmode="layer"
     id="layer1"><path
       id="path934"
       style="fill:#000000;fill-opacity:1;stroke-width:0.366953"
       d="m 115.00003,39.643754 c -0.0836,-0.103644 -2.20403,0.555545 -4.71139,1.465067 -6.22134,2.256727 -12.071521,4.163858 -18.756,6.114666 -6.871628,2.005437 -18.273794,6.260392 -24.055427,8.977013 -7.858668,3.692536 -8.98506,4.599385 -9.775073,7.864454 -0.798128,3.298614 1.125407,5.836334 7.101533,9.370984 5.01328,2.96516 12.770532,6.26945 21.574464,9.18916 25.003503,8.2921 33.668973,14.71595 30.433673,22.561372 -0.87894,2.1314 -4.05436,5.75251 -7.3611,8.39399 -5.33009,4.25777 -5.37068,4.27432 -11.470276,4.7549 -12.670063,0.9982 -19.631,2.37807 -27.040692,5.36099 -7.383023,2.97219 -12.610737,7.66296 -13.635638,12.23411 -0.812199,3.62254 -1.332775,14.08063 -1.349974,27.12163 -0.01661,12.56808 0.287935,18.20949 1.486515,27.52041 0.35839,2.78405 0.608286,5.11581 0.555192,5.18156 -0.05313,0.0657 -3.060888,0.78201 -6.684175,1.59188 -17.899713,4.00085 -27.739981,7.47696 -36.466686,12.88172 -5.8385567,3.61599 -10.4437091,8.48262 -12.1948492,12.88809 -1.1651874,2.93138 -1.1027669,6.92627 0.1578,10.11668 3.5908545,9.08818 16.3945552,16.5225 37.6285862,21.84836 9.574375,2.40144 23.026046,4.48984 34.460405,5.34984 3.173981,0.23871 6.51285,0.49903 7.419704,0.5782 0.906851,0.0791 10.033098,0.0951 20.280508,0.0359 21.27989,-0.12272 29.29901,-0.72901 46.33194,-3.50275 21.75924,-3.54342 39.91888,-9.81615 50.3883,-17.40611 3.8071,-2.76003 7.7903,-7.71109 8.74391,-10.86796 3.09319,-10.23983 -3.87154,-19.2618 -20.05511,-25.97956 -6.85746,-2.84651 -13.5194,-4.75173 -23.81839,-6.8109 -5.39202,-1.07808 -9.69544,-2.08985 -9.56319,-2.24906 0.13225,-0.15921 2.21448,-1.76611 4.62702,-3.57054 12.46013,-9.31931 20.4167,-17.51064 24.46312,-25.18602 2.26267,-4.29189 3.0367,-7.00959 3.22615,-11.31934 0.30257,-6.88308 -1.52787,-12.94821 -5.3387,-17.68765 -6.92401,-8.61129 -15.6285,-9.05237 -31.24971,-1.58312 -0.42414,0.2028 -0.88046,-0.37243 -1.93478,-2.43963 -2.20889,-4.33085 -4.68306,-6.28135 -11.94561,-9.41565 l -4.03123,-1.73943 1.48392,-0.4825 c 13.33512,-4.33507 17.24878,-6.11521 19.98813,-9.09345 1.57466,-1.71196 2.10611,-3.36301 2.10611,-6.53895 0,-2.0831 -0.21189,-3.12449 -1.10588,-5.434382 -3.41855,-8.83286 -15.15885,-14.92325 -35.77043,-18.55689 -2.77966,-0.49003 -5.12203,-0.80569 -5.20603,-0.70183 -0.084,0.10395 2.41237,0.97578 5.54803,1.93721 15.79942,4.84425 24.20776,9.95277 26.52609,16.1173 0.92116,2.449432 1.03534,6.139882 0.25312,8.181082 -1.50059,3.91568 -7.47769,8.38848 -15.5627,11.64556 l -4.13495,1.66523 -3.98744,-0.61172 c -2.19332,-0.33662 -5.22534,-0.7369 -6.73762,-0.88923 -1.51229,-0.15233 -2.62525,-0.41731 -2.47325,-0.58939 0.152,-0.17208 2.71005,-1.71275 5.68457,-3.42379 8.63853,-4.96927 13.4216,-9.38242 14.05815,-12.97109 0.27499,-1.550392 -0.88711,-4.540942 -2.2697,-5.840322 -1.73107,-1.62689 -5.79733,-4.14713 -9.28236,-5.75338 -1.81371,-0.83592 -9.97539,-3.59498 -18.13705,-6.13062 -20.681828,-6.42535 -28.370713,-9.84132 -32.014867,-14.22475 -2.795332,-3.36242 -2.721443,-5.271141 0.337494,-8.732968 3.122256,-3.533464 11.340687,-7.816846 26.7309,-13.930471 7.799283,-3.098193 16.727373,-7.03317 16.524943,-7.283853 z m 1.31841,0.407541 c -0.0866,-0.107304 -1.68825,0.54443 -3.55913,1.448315 -1.87089,0.903891 -8.00223,3.517598 -13.624697,5.808419 -18.683546,7.612418 -23.794786,10.277373 -27.109609,14.134642 l -1.909675,2.22192 1.919333,-1.868614 C 76.099484,57.837514 80.299775,55.663149 98.475087,48.10955 112.08967,42.451354 116.60866,40.410674 116.31844,40.051295 Z M 56.512539,65.111311 c -0.04741,0.06854 -0.05634,0.347144 -0.06312,0.801521 -0.0198,1.322656 1.130449,3.784696 2.394015,5.123336 3.664254,3.88198 14.127979,8.69132 30.068477,13.82043 7.903584,2.5431 10.805572,3.6526 15.169169,5.79803 6.74575,3.31662 11.06049,6.80095 12.03705,9.720332 0.22977,0.68684 0.48275,1.16876 0.56165,1.07107 0.079,-0.0977 -0.16564,-0.9281 -0.5436,-1.845492 -0.96705,-2.34723 -3.49186,-4.65692 -8.09277,-7.40348 -4.48523,-2.6775 -8.859357,-4.51466 -19.846419,-8.33419 -12.571111,-4.37021 -19.620526,-7.40232 -25.217972,-10.84643 -3.300769,-2.03097 -4.724905,-3.59945 -5.747051,-6.3316 -0.455457,-1.217345 -0.640416,-1.687753 -0.719429,-1.573527 z m 56.603571,16.173127 c -0.0984,-0.008 -0.15855,-0.002 -0.17582,0.0191 -0.073,0.0904 2.91979,1.12167 6.65068,2.2913 8.28041,2.5959 14.52519,5.20363 18.41014,7.68819 2.96495,1.89621 6.59754,5.59047 6.9856,7.10442 0.1158,0.45171 0.29308,0.71932 0.39418,0.59416 0.38197,-0.47302 -1.74676,-3.61139 -3.67702,-5.42082 -2.62557,-2.46125 -5.77725,-4.23539 -12.23092,-6.88429 -4.74267,-1.94663 -14.88028,-5.26687 -16.35684,-5.39211 z M 130.5724,107.4012 c -0.24649,-0.009 -1.24525,0.77029 -1.45111,1.18274 -0.1231,0.24665 0.1651,0.13238 0.64087,-0.25363 0.47574,-0.38601 0.86497,-0.779 0.86497,-0.87329 0,-0.0369 -0.0196,-0.0545 -0.0547,-0.0559 z m -4.06732,3.53384 c 0.27933,-0.33741 -9.96495,5.63331 -10.35989,6.03813 -0.30342,0.31101 0.28832,0.10682 1.49876,-0.51759 2.00025,-1.03196 8.49483,-5.07807 8.86113,-5.52054 z m 28.74812,0.63725 c -0.10554,0.008 -0.48723,0.30104 -0.99639,0.77838 -2.1068,1.97524 -7.14349,4.66895 -11.6068,6.20798 -2.35041,0.81044 -4.64438,1.64157 -5.09781,1.84709 -0.67375,0.30535 -0.61351,0.32892 0.32975,0.12771 2.17025,-0.46315 8.90213,-2.99102 11.22488,-4.21495 2.35418,-1.24048 5.73445,-3.79759 6.15412,-4.65519 0.0317,-0.0645 0.0274,-0.0935 -0.007,-0.0909 z m -19.04713,9.26732 c -0.11457,-0.006 -0.24551,0.02 -0.36454,0.0789 -0.26306,0.13027 -0.18513,0.22683 0.19903,0.24643 0.34769,0.0178 0.54236,-0.0782 0.4328,-0.21374 -0.0548,-0.0678 -0.15273,-0.10591 -0.26729,-0.11167 z m -28.38487,2.43086 c 1.67872,0.0167 3.60546,0.1212 5.65817,0.31583 l 2.803,0.26556 -2.803,1.3941 c -6.09267,3.02973 -8.80261,5.20823 -9.86848,7.93461 -0.76582,1.959 -0.97576,4.40664 -0.25247,2.9437 1.91069,-3.86451 5.63414,-6.70401 12.26443,-9.35185 5.86024,-2.34032 6.1345,-2.39646 9.1587,-1.89015 9.74066,1.63083 18.31403,5.83001 20.03576,9.81362 0.98344,2.27536 2.02631,18.32724 2.02754,31.21457 0.003,16.44897 -0.95108,25.6503 -3.72789,35.99017 -1.46044,5.43818 -2.75795,8.45459 -5.09266,11.83855 -4.28307,6.20786 -13.55725,11.81938 -23.22587,14.05249 -4.95828,1.14519 -15.794602,1.45819 -20.393232,0.58937 -8.500878,-1.60608 -16.553497,-5.43916 -21.789584,-10.37268 -6.949466,-6.54787 -10.837593,-19.83707 -12.256679,-41.88952 -0.708102,-11.004 0.148323,-37.03898 1.306819,-39.71941 0.648579,-1.50063 3.294969,-4.04674 5.726441,-5.51014 4.931459,-2.96802 12.760009,-5.33672 21.933857,-6.63548 2.585635,-0.36605 4.950779,-0.60542 5.255623,-0.53274 0.343129,0.0818 -0.616821,1.05153 -2.520252,2.54572 -3.560948,2.79529 -6.975053,6.59338 -8.07537,8.98419 -0.695412,1.511 -1.415573,5.13849 -1.020209,5.13849 0.08914,0 0.449837,-0.68907 0.801871,-1.53125 0.745095,-1.78255 3.493374,-5.15609 5.679423,-6.97123 1.491496,-1.23842 10.083835,-6.67917 12.613482,-7.98727 0.8542,-0.44171 2.96272,-0.65699 5.76058,-0.62925 z m -5.2801,0.78556 -6.535383,4.10089 c -5.26903,3.30653 -6.958978,4.58177 -8.723305,6.58364 -1.203533,1.36558 -2.423118,3.04654 -2.710896,3.73563 -0.371522,0.88961 0.02347,0.52174 1.362855,-1.26966 2.460346,-3.29066 5.232676,-5.53137 11.610678,-9.38537 l 5.216971,-3.15262 5.11135,-0.22491 5.11136,-0.2241 -5.22149,-0.0822 z m -11.112155,0.56067 c -0.199998,0.012 -0.48629,0.0401 -0.868209,0.0894 -8.418046,1.08249 -15.601997,2.96017 -20.445407,5.34426 -3.703325,1.82289 -5.299928,2.9609 -6.745359,4.80754 -0.623377,0.79639 -0.983596,1.4483 -0.800581,1.4483 0.183014,0 0.768331,-0.56872 1.301024,-1.26409 2.807073,-3.6642 11.815693,-7.31059 22.57213,-9.13572 3.575108,-0.60663 6.386382,-1.37105 4.986402,-1.2896 z m 31.778485,0.9323 c -3.38843,-0.0343 -3.86641,0.0657 -7.25483,1.52089 -7.28965,3.13087 -10.9276,5.92215 -12.03513,9.23303 -0.80053,2.39315 -1.89752,0.97156 -1.52192,-1.9723 0.16505,-1.29373 0.14521,-1.3592 -0.14879,-0.4889 -0.18698,0.55344 -0.29601,1.74785 -0.24217,2.6542 0.0845,1.42089 0.21315,1.6641 0.93327,1.76813 0.68932,0.0996 0.90667,-0.12498 1.24563,-1.28562 0.9665,-3.3097 4.83314,-6.21763 12.35586,-9.29284 4.5755,-1.8704 6.41837,-1.99437 11.52374,-0.7744 3.60418,0.86126 10.08443,3.39595 12.29209,4.80751 1.49442,0.95552 3.62593,3.56743 3.91017,4.79157 0.10427,0.44917 0.45454,3.8486 0.77804,7.55421 0.46398,5.31548 0.58463,10.05573 0.57193,22.45847 -0.0146,14.29256 -0.0821,16.19468 -0.74197,20.93599 -0.3992,2.86834 -0.72588,5.42527 -0.72588,5.6824 0,1.37868 0.36228,-0.43162 0.9571,-4.78119 1.27966,-9.35742 1.6719,-22.66064 1.01698,-34.4956 -0.48353,-8.73814 -1.29063,-17.10507 -1.79373,-18.59602 -1.01098,-2.99617 -5.35661,-5.75073 -12.95872,-8.21379 -3.80326,-1.23225 -5.11902,-1.47487 -8.16167,-1.50574 z m 3.9005,8.38605 c -0.31137,0.002 -0.62285,0.012 -0.93261,0.0303 -4.57037,0.26459 -8.14383,1.42162 -18.63172,6.03493 -10.994583,4.83621 -14.496194,5.86778 -19.950745,5.87859 -4.556627,0.009 -6.959935,-0.63717 -10.622672,-2.85434 -1.631615,-0.98769 -2.761599,-2.01891 -3.598427,-3.28346 -1.083213,-1.63685 -1.351311,-1.82921 -2.392727,-1.72026 -1.589898,0.16645 -2.329129,1.67629 -1.717093,3.50594 0.5631,1.68335 2.451736,3.95929 4.4705,5.38652 3.36354,2.37795 13.534736,6.07249 19.466418,7.07092 l 0.989294,0.16669 -0.989294,0.0574 c -1.520237,0.0885 -10.182856,-2.19368 -13.644655,-3.59448 -6.088895,-2.46386 -9.966792,-5.79023 -10.913148,-9.36142 -0.261001,-0.98494 -0.534199,-1.56833 -0.60736,-1.29679 -0.0731,0.27151 0.114515,1.29548 0.416714,2.27536 0.889273,2.88333 3.869388,5.7915 8.244116,8.04469 5.917756,3.04797 14.821785,5.36952 23.144072,6.0341 5.273417,0.42114 12.403957,0.14481 16.875937,-0.65395 9.99272,-1.78463 17.80125,-6.9943 20.53494,-13.69999 1.24813,-3.06174 1.23349,-3.59412 -0.0244,-0.87808 -3.52222,7.60465 -11.69111,12.40189 -23.91051,14.04133 -3.75896,0.50433 -14.242127,0.25206 -17.477521,-0.4203 -1.075754,-0.22362 -0.445382,-0.25071 1.813705,-0.0781 1.904389,0.1454 6.282006,0.24348 9.728046,0.21771 9.64807,-0.0722 16.01962,-1.68545 22.08973,-5.59227 4.6139,-2.96958 8.71673,-9.05786 7.79391,-11.5658 -0.76642,-2.08287 -5.48399,-3.77786 -10.15443,-3.74521 z m 41.11237,0.65317 c 4.48296,-0.004 8.25426,1.95245 10.87193,5.64413 2.48483,3.50436 4.28154,10.49268 3.85219,14.98162 -0.94884,9.92027 -15.29477,26.61021 -29.1803,33.9477 -3.3841,1.78825 -3.78954,1.82587 -3.56236,0.33018 0.0939,-0.61761 0.26433,-2.17943 0.37935,-3.47086 l 0.20932,-2.34794 4.20322,-2.64701 c 9.72279,-6.12192 17.09753,-13.26076 20.67662,-20.01562 1.5264,-2.88079 2.55573,-6.91508 2.31737,-9.0807 -0.26418,-2.40002 -1.90663,-6.25564 -3.3189,-7.79106 -2.12368,-2.30889 -3.02407,-2.68466 -6.44844,-2.68928 -4.1565,-0.006 -7.55127,1.19154 -12.82282,4.5244 -2.24611,1.42008 -4.20038,2.58239 -4.34298,2.58239 -0.14258,0 -0.35696,-1.2403 -0.47662,-2.75626 -0.11975,-1.51594 -0.2913,-3.0832 -0.38128,-3.48282 -0.13187,-0.58552 0.49723,-1.1088 3.2416,-2.69485 6.21286,-3.5906 10.43794,-5.0294 14.7821,-5.03402 z m -1.48394,0.52797 2.09451,0.37085 c 1.15198,0.20376 2.26494,0.45654 2.47325,0.56226 0.20829,0.10576 0.6013,0.1955 0.87334,0.19859 1.42294,0.0181 -1.46719,-0.83167 -3.29763,-0.9698 z m -1.52709,0.4219 c -0.23909,-0.002 -0.48987,0.022 -0.69497,0.071 v -7e-4 c -0.41019,0.0977 -0.15224,0.18121 0.57323,0.18585 0.72551,0.004 1.06114,-0.0757 0.74583,-0.17787 -0.15763,-0.0508 -0.38502,-0.0768 -0.62409,-0.0782 z m -1.96249,0.40992 c -0.11457,-0.006 -0.24552,0.02 -0.36455,0.0789 -0.26306,0.13043 -0.18513,0.22685 0.19903,0.24644 0.34754,0.0176 0.54237,-0.0782 0.43281,-0.21373 -0.0548,-0.0679 -0.15273,-0.10591 -0.26729,-0.11181 z m -1.64819,0.5519 c -0.0245,-0.003 -0.0704,0.004 -0.13847,0.0207 -1.35958,0.33627 -9.25021,4.2496 -9.96894,4.94389 -0.52342,0.5056 -0.49911,0.5245 0.24087,0.18823 0.45345,-0.20604 1.7148,-0.87617 2.80302,-1.489 1.08822,-0.61283 3.31412,-1.73833 4.94646,-2.50106 1.42829,-0.66739 2.28883,-1.14414 2.11706,-1.1628 z m -105.406153,0.36926 c -0.03467,0.0431 -0.05777,0.18565 -0.0657,0.42349 -0.01432,0.43037 0.06305,0.6716 0.17261,0.53593 0.109554,-0.13573 0.121629,-0.48761 0.02642,-0.78238 -0.05264,-0.16288 -0.09866,-0.21996 -0.133323,-0.17704 z m 26.170558,0.0493 -0.125595,1.98985 c -0.06884,1.09439 -0.0469,2.24283 0.04895,2.55212 0.201323,0.64969 1.377854,0.75746 1.679092,0.15385 0.115593,-0.23158 -0.161597,-0.40834 -0.640205,-0.40834 -0.79062,0 -0.847303,-0.13525 -0.902988,-2.14375 z m 93.936545,1.22501 1.30359,1.73544 c 0.71694,0.95446 1.34766,1.73543 1.4015,1.73543 0.24949,0 -2.2e-4,-0.35553 -1.30361,-1.85666 z m -120.224325,0.81668 -0.296917,2.26498 c -0.464541,3.54329 -1.003969,16.27767 -0.930684,21.97437 0.04448,3.46463 0.09702,4.0871 0.159087,1.89414 0.148502,-5.24223 0.748338,-20.65469 0.915225,-23.51199 z m 110.456975,6.76544 c 1.22188,0.0191 2.05995,0.19311 2.84229,0.56307 1.62425,0.76812 3.98693,3.70304 4.32557,5.37377 0.52398,2.5851 -1.84806,7.92428 -5.35673,12.05707 -3.26433,3.84497 -9.42709,9.13877 -13.92417,11.96055 -0.95624,0.60003 -2.11241,1.26675 -2.56923,1.48182 l -0.83084,0.3908 0.20675,-9.90454 c 0.11358,-5.44756 0.27862,-10.48919 0.36711,-11.20371 0.24868,-2.00867 4.44118,-6.63677 7.98005,-8.80873 2.52211,-1.54794 3.12289,-1.74918 5.59763,-1.87897 0.50481,-0.0263 0.95428,-0.0376 1.36157,-0.0312 z m -0.95002,0.42989 c -0.20918,0 -0.41839,0.026 -0.57706,0.0773 -0.31742,0.10258 -0.0576,0.1866 0.57706,0.1866 0.63479,0 0.8945,-0.0838 0.5771,-0.1866 -0.15869,-0.0514 -0.36789,-0.0773 -0.5771,-0.0773 z m 1.15419,0.37164 1.28943,0.40913 c 1.66587,0.52873 3.28344,1.77681 3.9604,3.05615 0.29499,0.5575 0.62493,1.01365 0.7336,1.01365 0.10875,0 -0.0213,-0.41345 -0.2892,-0.91875 -0.79196,-1.49447 -2.96945,-3.17116 -4.38032,-3.37276 z m -3.13277,0.0247 c -2.13178,-0.0461 -7.32034,3.73783 -10.05782,7.33572 -0.91774,1.20616 -0.49028,0.87039 1.40537,-1.10379 2.86886,-2.98771 5.52291,-4.88564 7.99293,-5.71591 0.98487,-0.33103 1.20667,-0.50366 0.65952,-0.51602 z m 6.851,22.95454 c -0.0911,0.0477 -0.65806,0.58665 -1.77635,1.65729 -3.65606,3.50024 -7.79749,6.72274 -12.82411,9.97868 -2.53919,1.64474 -4.17153,2.87717 -3.62741,2.73873 1.44427,-0.36731 9.30527,-5.77392 12.63217,-8.68829 1.57684,-1.38133 3.60872,-3.35808 4.51559,-4.39279 0.7862,-0.89708 1.17118,-1.34123 1.08011,-1.29362 z m 8.70204,4.38005 c -0.10207,0.0303 -0.625,0.54792 -1.37315,1.37096 -3.2767,3.60478 -9.91846,9.50469 -15.72566,13.96954 -3.13982,2.41406 -5.70906,4.46612 -5.70906,4.55947 0,0.60918 9.86767,-6.95203 14.17989,-10.86554 2.89658,-2.62871 7.88478,-7.79874 8.58291,-8.89565 0.0668,-0.105 0.0791,-0.14874 0.0452,-0.13875 z m -84.263224,11.77556 c -1.605005,-0.003 -2.040635,0.0535 -3.385884,0.42828 -1.248683,0.34776 -2.265351,0.79409 -3.145003,1.3821 -1.622663,1.08469 -3.127699,2.33605 -4.412534,3.66865 -1.234572,1.2805 -1.715287,1.72017 -2.734726,2.50106 -2.183125,1.67225 -4.262265,2.55516 -6.01756,2.55528 -0.99624,7e-5 -1.595634,-0.20607 -2.263268,-0.7784 -0.479307,-0.41088 -1.000293,-1.38942 -1.221803,-2.29528 -0.268075,-1.09631 -0.07199,-2.58875 0.410918,-3.1311 0.640203,-0.71906 1.455247,-1.10566 2.350217,-1.11338 0.754798,-0.006 1.02632,0.0849 2.038485,0.68509 l 0.868854,0.5152 -0.340071,-0.76721 c -0.440672,-0.9949 -0.713235,-1.45425 -1.182515,-1.99381 -0.630111,-0.72449 -1.049669,-1.02851 -1.804045,-1.30718 -0.35953,-0.13283 -0.530587,-0.15387 -1.252074,-0.15387 -0.90026,0 -1.284379,0.0745 -2.217537,0.43228 -1.201215,0.46075 -1.823114,0.91326 -2.702527,1.96752 -1.161496,1.39243 -1.896945,3.02776 -2.244588,4.99014 -0.237058,1.33809 -0.208339,3.67212 0.0657,5.34267 0.253958,1.54816 1.273272,4.14331 2.296758,5.84907 2.689183,4.48191 6.878554,7.04359 12.601903,7.70574 1.860701,0.21527 4.302801,0.052 6.354412,-0.42587 4.424078,-1.03024 7.69978,-2.58871 9.970226,-4.74291 1.181906,-1.12142 3.710836,-4.48202 5.112626,-6.79417 l 0.47791,-0.78797 0.43152,0.83503 c 0.92039,1.77891 1.83835,3.19294 2.83715,4.37125 0.18386,0.21689 0.54546,0.65992 0.80379,0.98497 1.95412,2.45872 4.32165,4.2061 7.13567,5.2661 2.19129,0.8254 5.14862,1.48652 7.77203,1.73781 0.12248,0.0121 0.89008,0.0264 1.70549,0.0327 2.57251,0.0192 4.50392,-0.31384 6.5515,-1.12851 1.31727,-0.52408 1.83278,-0.83022 3.22036,-1.91168 3.42718,-2.67111 5.74948,-6.37945 6.68546,-10.67575 0.29828,-1.36911 0.37948,-2.22657 0.34458,-3.64311 -0.042,-1.70742 -0.2234,-2.59424 -0.82314,-4.03072 -0.43137,-1.03327 -0.94562,-1.87519 -1.66557,-2.72439 -0.89864,-1.05999 -1.79597,-1.70324 -2.84227,-2.03926 -0.41259,-0.13211 -0.59567,-0.15058 -1.42083,-0.14754 -0.7877,0.003 -1.03602,0.0295 -1.47619,0.15475 -0.79132,0.22487 -1.53513,0.78427 -2.52993,1.9037 -0.42271,0.47567 -1.36995,1.77333 -1.36995,1.8766 0,0.0409 0.0575,0.003 0.4457,-0.30466 1.35765,-1.07127 2.84818,-1.30857 3.9836,-0.63485 0.51028,0.30278 0.9051,0.84586 1.06271,1.46188 0.11011,0.42936 0.10665,1.21994 -0.006,1.66603 -0.12137,0.47817 -0.51059,1.52883 -0.71039,1.91727 -0.47082,0.91524 -1.71119,1.63282 -2.99238,1.73146 -0.39035,0.0301 -0.59083,0.005 -1.14194,-0.14118 -2.49102,-0.66046 -5.03717,-2.19149 -6.76982,-4.0722 -1.40459,-1.52461 -2.99001,-2.93546 -4.59609,-4.08894 -0.79536,-0.57123 -1.1348,-0.7588 -1.95027,-1.07825 -1.52463,-0.5973 -2.90337,-0.87945 -4.56066,-0.93391 -1.28098,-0.0422 -1.68872,0.003 -2.79401,0.30944 -1.82762,0.50707 -3.46058,1.42169 -4.80475,2.69005 l -0.29242,0.27518 -0.18163,-0.17309 c -1.5558,-1.48698 -2.681777,-2.19772 -4.360991,-2.75227 -1.172511,-0.38722 -1.718434,-0.4642 -3.313753,-0.46574 z m 49.016404,8.37405 c -0.0347,0.043 -0.0578,0.18565 -0.0657,0.42349 -0.0144,0.43038 0.0632,0.67161 0.17261,0.53594 0.10949,-0.13572 0.12161,-0.48761 0.0265,-0.78237 -0.0525,-0.16286 -0.0986,-0.21999 -0.13331,-0.17706 z m 4.68048,5.15365 h 1.25014 c 1.60851,0 13.88912,2.16754 19.86381,3.50594 9.57997,2.14603 19.84516,6.13071 25.99537,10.09117 3.71273,2.39084 7.25767,6.13959 8.17778,8.64762 2.13182,5.81102 -1.50461,11.4096 -10.99495,16.92921 -15.24505,8.8665 -38.55024,14.54665 -70.49943,17.18199 -5.15968,0.42562 -29.909566,0.82951 -34.790155,0.56785 C 77.270153,255.56 64.059007,254.18614 54.293069,252.64973 33.550162,249.38643 15.744105,242.44359 9.5455582,235.20295 5.0138319,229.90937 4.8950067,226.11257 9.1011502,221.02762 13.691715,215.47793 25.710874,209.08056 37.468632,205.92877 c 14.20687,-3.8083 21.201808,-5.36829 21.613753,-4.82027 0.259988,0.34587 1.964418,6.0781 1.964418,6.60673 0,0.17051 -1.372643,0.61204 -3.050323,0.98097 -6.31906,1.3895 -12.722787,4.15754 -16.167482,6.98876 -3.342958,2.74763 -4.855012,5.56073 -4.855012,9.03284 0,11.15536 19.089071,18.55801 54.20055,21.01813 7.560648,0.52958 25.510664,0.52786 32.527544,-0.003 29.83803,-2.25821 49.99554,-10.72287 51.61073,-21.6721 0.73299,-4.96883 -2.85816,-9.25846 -10.55504,-12.60898 -3.63071,-1.58043 -5.98561,-2.17409 -6.68998,-1.68598 -0.40365,0.27972 0.1121,0.75733 2.25878,2.09032 5.6485,3.50754 10.22677,7.93973 10.7212,10.37907 0.51007,2.51648 -3.11793,6.42533 -8.71943,9.39412 -8.19606,4.34391 -17.90942,6.7826 -34.50422,8.66359 -11.3178,1.28283 -35.57935,0.93272 -48.805147,-0.70422 -5.032523,-0.62287 -14.703046,-2.37226 -19.168854,-3.46766 -9.304066,-2.28212 -17.548419,-6.8686 -18.51448,-10.30012 -0.988309,-3.51055 3.822611,-8.02531 11.137283,-10.45164 2.665539,-0.88417 9.570978,-2.69899 10.28389,-2.70362 0.124449,-5.5e-4 1.117575,1.42327 2.20659,3.16379 3.016499,4.82119 6.577054,8.14953 12.363597,11.55782 10.965143,6.45849 26.048491,8.4083 39.316041,5.08185 10.28903,-2.57967 19.15649,-8.05915 24.49405,-15.13632 2.62144,-3.47584 4.80346,-8.37902 6.48387,-14.57008 z m 0.57451,0.59338 c -0.23122,0.28629 0.94675,0.54077 7.67862,1.65886 19.84787,3.29651 32.74811,7.83623 40.56297,14.27501 5.17138,4.26077 6.9186,7.95082 5.59506,11.81701 -0.18665,0.54536 -0.15409,0.69406 0.10875,0.49288 0.56423,-0.4318 1.10288,-3.33098 0.85983,-4.62809 -0.78254,-4.17635 -5.32979,-8.93119 -11.37623,-11.89595 -10.96527,-5.37665 -21.03836,-8.34907 -36.87759,-10.88073 -3.52184,-0.56292 -6.46986,-0.94008 -6.55151,-0.83899 z m -106.94163,5.58199 c -0.114566,-0.006 -0.245525,0.02 -0.364545,0.0789 -0.263067,0.13044 -0.185148,0.22685 0.199017,0.24643 0.347697,0.0178 0.542372,-0.078 0.432817,-0.21372 -0.05479,-0.0678 -0.152729,-0.10593 -0.267289,-0.11167 z m -1.45689,0.43944 c -0.36274,0 -1.030519,0.14723 -1.483941,0.32699 -0.652792,0.25888 -0.687118,0.32698 -0.164882,0.32698 0.362739,0 1.030516,-0.14722 1.48394,-0.32698 0.652802,-0.25886 0.687129,-0.32699 0.164883,-0.32699 z m -2.830695,0.75686 c -0.901338,-0.0377 -10.132258,3.2236 -13.451433,4.75248 -7.812193,3.59852 -13.158952,7.42907 -15.8699197,11.36961 -0.4534237,0.65907 -0.059301,0.33658 0.8759349,-0.71618 4.4841658,-5.04766 12.6841258,-9.78409 23.1968798,-13.39933 3.173986,-1.09148 5.535747,-1.99425 5.248538,-2.00658 z m 118.804775,3.90791 c -0.0381,0.003 -0.0583,0.0168 -0.0578,0.0471 0.003,0.17095 1.37486,1.18934 3.05032,2.26261 4.65701,2.98313 8.44135,6.33071 9.61535,8.50646 1.057,1.95894 1.38864,2.22654 1.03117,0.83181 -0.34027,-1.32749 -2.7942,-4.12508 -5.62147,-6.40816 -2.7421,-2.21429 -7.44531,-5.26646 -8.0174,-5.23976 z m -103.634959,5.51248 c -0.114565,-0.006 -0.245523,0.02 -0.364544,0.0789 -0.263068,0.13042 -0.185146,0.22683 0.199018,0.24643 0.347695,0.0178 0.542371,-0.0781 0.432816,-0.21375 -0.05479,-0.0678 -0.152729,-0.10591 -0.26729,-0.1115 z m -1.292008,0.3844 c -1.550948,-0.0407 -8.386563,4.30562 -9.117475,5.79727 -0.136141,0.2778 0.264449,0.0365 0.890106,-0.53676 1.907333,-1.74773 3.659806,-2.89758 6.248781,-4.0993 1.360271,-0.6314 2.250643,-1.1535 1.978588,-1.16121 z m 157.796227,8.07741 c -0.0541,-0.0385 -0.092,0.29014 -0.092,0.87966 0,0.78606 0.0678,1.10761 0.15072,0.7146 0.0829,-0.39302 0.0829,-1.03615 0,-1.42917 -0.0207,-0.0983 -0.0406,-0.15218 -0.0585,-0.16509 z M 36.084523,225.3886 c -0.05405,-0.0325 -0.08086,0.0826 -0.08181,0.34295 -0.01052,3.01912 2.920658,7.37214 6.752446,10.02814 6.902902,4.7848 19.54214,8.31299 36.428685,10.16933 2.62987,0.2891 5.968739,0.52673 7.419704,0.52796 1.96796,0.003 1.2978,-0.13694 -2.638118,-0.54311 -17.986823,-1.85658 -32.622901,-5.53529 -39.780432,-9.99866 -4.427185,-2.76071 -6.524246,-5.27927 -7.597468,-9.12375 -0.246941,-0.88457 -0.41294,-1.34859 -0.503019,-1.40286 z m -35.35952704,0.54708 0.1429872,2.79614 c 0.19241994,3.76552 1.29946334,6.61913 3.83609004,9.89017 3.9143077,5.04761 9.0318578,8.41491 18.7495628,12.33544 16.594645,6.69491 38.056459,10.68383 61.995747,11.52271 39.295497,1.377 78.150847,-3.89957 100.935667,-13.70717 13.42033,-5.77672 21.9712,-13.47963 22.90383,-20.63213 0.16306,-1.25056 0.11939,-1.20226 -0.4412,0.4865 -2.40223,7.23762 -8.56671,12.71824 -20.57163,18.28898 -33.13312,15.3751 -96.009311,19.68491 -143.363239,9.82718 C 25.539734,252.71056 9.4015062,244.90425 4.2055608,237.05246 2.6607091,234.71795 1.4200956,231.30499 1.0347956,228.32906 Z M 175.42617,226.71567 c -0.0923,0.0254 -0.3081,0.34802 -0.55712,0.85335 -1.10229,2.23675 -4.17834,5.28196 -7.49507,7.42023 -8.20093,5.28707 -21.92394,9.21155 -38.89031,11.12236 -2.11195,0.2379 -2.49204,0.35065 -1.31842,0.39001 2.0118,0.0673 11.66307,-1.27389 17.11104,-2.37745 4.84949,-0.98235 13.64366,-3.64013 17.01895,-5.14408 3.55361,-1.58338 8.48401,-4.72945 10.48998,-6.6929 1.7087,-1.67243 3.69111,-4.62504 3.6886,-5.49418 -1.6e-4,-0.0617 -0.0168,-0.0857 -0.0476,-0.0773 z m -83.085864,19.88564 c -0.537928,-5.3e-4 -1.088449,0.0209 -1.521941,0.0629 v 5.4e-4 c -0.86698,0.0844 -0.24114,0.15433 1.391195,0.15551 1.632326,5.5e-4 2.34204,-0.0674 1.576687,-0.15307 -0.382676,-0.0433 -0.908013,-0.0657 -1.445941,-0.0663 z m 30.008564,0 c -0.53791,-5.3e-4 -1.08843,0.0209 -1.52192,0.0629 v 5.4e-4 c -0.86697,0.0844 -0.24115,0.15433 1.3912,0.15551 1.63227,5.5e-4 2.34204,-0.0674 1.57668,-0.15307 -0.38268,-0.0433 -0.90801,-0.0657 -1.44596,-0.0663 z m -15.13504,0.41551 c -1.94251,0 -3.88502,0.0172 -5.35866,0.0511 -2.947274,0.0676 -0.53587,0.12287 5.35866,0.12287 5.89454,0 8.30595,-0.055 5.35869,-0.12287 -1.47364,-0.0337 -3.41616,-0.0511 -5.35869,-0.0511 z" /></g></svg>
